<?xml version="1.0" encoding="utf-8"?>
<!-- Generator: Adobe Illustrator 25.0.1, SVG Export Plug-In . SVG Version: 6.00 Build 0)  -->
<svg version="1.1" id="Layer_1" xmlns="http://www.w3.org/2000/svg" xmlns:xlink="http://www.w3.org/1999/xlink" x="0px" y="0px"
	 viewBox="0 0 1024 1024" style="enable-background:new 0 0 1024 1024;" xml:space="preserve">
<style type="text/css">
	.st0{fill:#226DB4;}
	.st1{fill:#E42527;}
	.st2{fill:#F9B21D;}
	.st3{fill:#089949;}
</style>
<g>
	<g>
		<path class="st0" d="M512,364.2c-51.9,0-94-42.1-94-94s42.1-94,94-94s94,42.1,94,94C605.9,322.1,563.9,364.2,512,364.2z
			 M512,236.2c-18.8,0-34,15.2-34,34s15.2,34,34,34s34-15.2,34-34S530.8,236.2,512,236.2z"/>
	</g>
	<g>
		<path class="st1" d="M309.4,1023.5c-15.8,0-31.3-4.1-45-12l-213-123c-27.8-16.1-45-45.8-45-77.9v-246c0-32.1,17.2-61.8,45-78
			L224.1,387c14.4-8.3,32.7-3.4,41,11s3.4,32.7-11,41L81.4,538.6c-9.3,5.4-15,15.3-15,26v245.9c0,10.7,5.7,20.6,15,26l213,123
			c9.3,5.3,20.7,5.3,30,0L497,859.8c14.4-8.3,32.7-3.4,41,11s3.4,32.7-11,41l0,0l-172.6,99.6
			C340.7,1019.4,325.2,1023.5,309.4,1023.5z"/>
	</g>
	<g>
		<path class="st2" d="M714.6,1023.5c-15.8,0-31.3-4.1-45-12l-172.8-99.8c-14.4-8.3-19.3-26.6-11-41s26.6-19.3,41-11l172.8,99.8
			c9.3,5.3,20.7,5.3,30,0l213-123c9.3-5.4,15-15.3,15-26V564.6c0-10.7-5.7-20.6-15-26L770.1,439c-14.4-8.3-19.3-26.6-11-41
			s26.6-19.3,41-11l172.5,99.6c27.8,16.1,45,45.8,45,78v246c0,32.1-17.2,61.8-45,77.9l-213,123
			C745.9,1019.3,730.4,1023.5,714.6,1023.5z"/>
	</g>
	<g>
		<path class="st3" d="M239.1,443.1c-16.6,0-30-13.4-30-30V213.5c0-32.1,17.2-61.8,45-77.9l213-123c27.9-16,62.1-16,90,0l213,123
			c27.8,16.1,45,45.8,45,77.9V413c0,16.6-13.4,30-30,30s-30-13.4-30-30V213.5c0-10.7-5.7-20.6-15-26l-213-123
			c-9.3-5.3-20.7-5.3-30,0l-213,123c-9.3,5.4-15,15.3-15,26v199.6C269.1,429.6,255.7,443.1,239.1,443.1z"/>
	</g>
	<g>
		<path class="st0" d="M441.6,640.9c-5.3,0-10.4-1.4-15-4l-172.5-99.6c-27.8-16.1-45-45.8-45-78V413c0-16.6,13.4-30,30-30
			s30,13.4,30,30v46.3c0,10.7,5.7,20.6,15,26L456.6,585c14.4,8.3,19.3,26.6,11,41C462.3,635.3,452.3,641,441.6,640.9L441.6,640.9z"
			/>
		<path class="st0" d="M582.4,641c-16.6,0-30-13.4-30-30c0-10.7,5.7-20.7,15-26l172.7-99.7c9.3-5.4,15-15.3,15-26V413
			c0-16.6,13.4-30,30-30s30,13.4,30,30v46.4c0,32.2-17.2,61.9-45,78L597.4,637C592.8,639.6,587.7,641,582.4,641z"/>
		<path class="st0" d="M512,519.3c-16.6,0-30-13.4-30-30c0-10.7,5.7-20.7,15-26l172.6-99.6c27.9-16,62.1-16,90,0l40.5,23.4
			c14.4,8.3,19.3,26.6,11,41s-26.6,19.3-41,11l-40.5-23.4c-9.3-5.3-20.7-5.3-30,0L527,515.3C522.4,518,517.3,519.3,512,519.3z"/>
		<path class="st0" d="M511.7,915.7c-5.3,0-10.4-1.4-15-4l-40.1-23.2c-27.8-16.1-44.9-45.8-45-77.9V610.8c0-16.6,13.4-30,30-30
			s30,13.4,30,30v199.7c0,10.7,5.7,20.6,15,26l40.1,23.2c14.4,8.3,19.3,26.6,11,41C532.4,910,522.5,915.7,511.7,915.7L511.7,915.7z"
			/>
		<path class="st0" d="M512,915.8c-16.6,0-30-13.4-30-30c0-10.7,5.7-20.7,15-26l40.4-23.3c9.3-5.4,15-15.3,15-26V610.8
			c0-16.6,13.4-30,30-30s30,13.4,30,30v199.7c0,32.1-17.2,61.8-45,77.9L527,911.8C522.4,914.4,517.3,915.8,512,915.8z"/>
		<path class="st0" d="M512,519.3c-5.3,0-10.4-1.4-15-4l-172.6-99.7c-9.3-5.3-20.7-5.3-30,0l-40.3,23.3c-14.4,8.3-32.7,3.4-41-11
			s-3.4-32.7,11-41l40.3-23.3c27.9-16,62.1-16,90,0L527,463.4c14.4,8.3,19.3,26.6,11,41C532.7,513.6,522.7,519.4,512,519.3
			L512,519.3z"/>
	</g>
</g>
</svg>
